<svg width="132" height="133" xmlns="http://www.w3.org/2000/svg" font-family="Verdana" font-size="16">
  <path d="M66,9.603 A39,39 0 1 0 66,70.937" stroke="#f00" fill="none"/>
  <text x="28" y="38" fill="#f00">&#x1D434;</text>
  <path d="M66,9.603 A39,39 0 1 1 66,70.937" stroke="#0f0" fill="none"/>
  <text x="98" y="38" fill="#0f0">&#x1D435;</text>
  <path d="M28.424,78.288 A39,39 0 1 0 103.567,78.288" stroke="#00f" fill="none"/>
  <path d="M66,9.603 A39,39 0 0 1 66,70.937" stroke="#f00" fill="none"/>
  <path d="M66,9.603 A39,39 0 0 0 66,70.937" stroke="#0f0" fill="none"/>
  <text x="60" y="102" fill="#00f">&#x1D436;</text>
  <path d="M28.424,78.288 A39,39 0 0 1 103.567,78.288" stroke="#00f" fill="none"/>
</svg>